<?xml version="1.0" encoding="UTF-8"?>
<!DOCTYPE svg PUBLIC "-//W3C//DTD SVG 1.1//EN" "http://www.w3.org/Graphics/SVG/1.1/DTD/svg11.dtd">
<!-- Creator: CorelDRAW 2021 (64-Bit OEM Version) -->
<svg xmlns="http://www.w3.org/2000/svg" xml:space="preserve" width="4.06924in" height="1.27367in" version="1.1" style="shape-rendering:geometricPrecision; text-rendering:geometricPrecision; image-rendering:optimizeQuality; fill-rule:evenodd; clip-rule:evenodd"
viewBox="0 0 926.97 290.14"
 xmlns:xlink="http://www.w3.org/1999/xlink"
 xmlns:xodm="http://www.corel.com/coreldraw/odm/2003">
 <defs>
  <style type="text/css">
   <![CDATA[
    .fil0 {fill:none}
    .fil3 {fill:#02A904}
    .fil4 {fill:#231F20}
    .fil5 {fill:#BD3E51}
    .fil2 {fill:#FAAF4A}
    .fil1 {fill:#1C1A1A;fill-rule:nonzero}
   ]]>
  </style>
 </defs>
 <g id="Layer_x0020_1">
  <metadata id="CorelCorpID_0Corel-Layer"/>
  <rect class="fil0" x="-0" y="0" width="926.97" height="290.14"/>
  <path class="fil1" d="M277.04 158.75c-0.74,0 -1.36,-0.27 -1.85,-0.8 -0.49,-0.53 -0.74,-1.13 -0.74,-1.79 0,-0.41 0.04,-0.78 0.12,-1.11l29.38 -79.38c0.25,-0.9 0.74,-1.69 1.48,-2.35 0.74,-0.66 1.77,-0.99 3.09,-0.99l15.8 0c1.32,0 2.35,0.33 3.09,0.99 0.74,0.66 1.23,1.44 1.48,2.35l29.38 79.38c0.08,0.33 0.12,0.7 0.12,1.11 0,0.66 -0.25,1.26 -0.74,1.79 -0.49,0.54 -1.11,0.8 -1.85,0.8l-12.84 0c-1.23,0 -2.14,-0.29 -2.72,-0.86 -0.58,-0.58 -0.95,-1.11 -1.11,-1.6l-5.31 -13.83 -34.81 0 -5.31 13.83c-0.17,0.49 -0.54,1.03 -1.11,1.6 -0.58,0.58 -1.48,0.86 -2.72,0.86l-12.84 0zm26.54 -32.22l25.55 0 -12.72 -35.55 -12.84 35.55zm89.38 33.45c-5.1,0 -9.49,-0.6 -13.15,-1.79 -3.66,-1.19 -6.63,-2.65 -8.89,-4.38 -2.26,-1.73 -3.95,-3.48 -5.06,-5.25 -1.11,-1.77 -1.71,-3.27 -1.79,-4.51 -0.08,-0.9 0.21,-1.65 0.86,-2.22 0.66,-0.58 1.32,-0.86 1.98,-0.86l11.97 0c0.25,0 0.49,0.04 0.74,0.12 0.25,0.08 0.49,0.29 0.74,0.62 1.07,0.74 2.18,1.58 3.33,2.53 1.15,0.95 2.49,1.75 4.01,2.41 1.52,0.66 3.44,0.99 5.74,0.99 2.72,0 5.02,-0.56 6.91,-1.67 1.89,-1.11 2.84,-2.7 2.84,-4.75 0,-1.48 -0.43,-2.72 -1.3,-3.7 -0.86,-0.99 -2.49,-1.89 -4.88,-2.72 -2.39,-0.82 -5.93,-1.73 -10.62,-2.72 -4.44,-0.99 -8.23,-2.3 -11.36,-3.95 -3.13,-1.65 -5.47,-3.72 -7.04,-6.23 -1.56,-2.51 -2.35,-5.53 -2.35,-9.07 0,-3.21 1.01,-6.3 3.03,-9.26 2.02,-2.96 5,-5.41 8.95,-7.35 3.95,-1.93 8.89,-2.9 14.81,-2.9 4.53,0 8.5,0.56 11.91,1.67 3.42,1.11 6.28,2.51 8.58,4.2 2.3,1.69 4.05,3.42 5.25,5.18 1.19,1.77 1.83,3.31 1.91,4.63 0.08,0.82 -0.16,1.52 -0.74,2.1 -0.58,0.58 -1.23,0.86 -1.97,0.86l-10.99 0c-0.41,0 -0.78,-0.06 -1.11,-0.18 -0.33,-0.12 -0.62,-0.31 -0.86,-0.56 -0.99,-0.66 -2,-1.42 -3.02,-2.28 -1.03,-0.86 -2.24,-1.63 -3.64,-2.28 -1.4,-0.66 -3.21,-0.99 -5.43,-0.99 -2.72,0 -4.79,0.6 -6.23,1.79 -1.44,1.19 -2.16,2.7 -2.16,4.51 0,1.15 0.37,2.22 1.11,3.21 0.74,0.99 2.26,1.89 4.57,2.72 2.3,0.82 5.8,1.69 10.49,2.59 5.6,0.99 10.04,2.47 13.33,4.44 3.29,1.97 5.66,4.26 7.1,6.85 1.44,2.59 2.16,5.37 2.16,8.33 0,3.87 -1.15,7.3 -3.46,10.31 -2.3,3 -5.66,5.35 -10.06,7.04 -4.4,1.69 -9.81,2.53 -16.23,2.53zm66.91 0c-5.1,0 -9.49,-0.6 -13.15,-1.79 -3.66,-1.19 -6.63,-2.65 -8.89,-4.38 -2.26,-1.73 -3.95,-3.48 -5.06,-5.25 -1.11,-1.77 -1.71,-3.27 -1.79,-4.51 -0.08,-0.9 0.21,-1.65 0.86,-2.22 0.66,-0.58 1.32,-0.86 1.98,-0.86l11.97 0c0.25,0 0.49,0.04 0.74,0.12 0.25,0.08 0.49,0.29 0.74,0.62 1.07,0.74 2.18,1.58 3.33,2.53 1.15,0.95 2.49,1.75 4.01,2.41 1.52,0.66 3.44,0.99 5.74,0.99 2.72,0 5.02,-0.56 6.91,-1.67 1.89,-1.11 2.84,-2.7 2.84,-4.75 0,-1.48 -0.43,-2.72 -1.3,-3.7 -0.86,-0.99 -2.49,-1.89 -4.88,-2.72 -2.39,-0.82 -5.93,-1.73 -10.62,-2.72 -4.44,-0.99 -8.23,-2.3 -11.36,-3.95 -3.13,-1.65 -5.47,-3.72 -7.04,-6.23 -1.56,-2.51 -2.35,-5.53 -2.35,-9.07 0,-3.21 1.01,-6.3 3.03,-9.26 2.02,-2.96 5,-5.41 8.95,-7.35 3.95,-1.93 8.89,-2.9 14.81,-2.9 4.53,0 8.5,0.56 11.91,1.67 3.42,1.11 6.28,2.51 8.58,4.2 2.3,1.69 4.05,3.42 5.25,5.18 1.19,1.77 1.83,3.31 1.91,4.63 0.08,0.82 -0.16,1.52 -0.74,2.1 -0.58,0.58 -1.23,0.86 -1.97,0.86l-10.99 0c-0.41,0 -0.78,-0.06 -1.11,-0.18 -0.33,-0.12 -0.62,-0.31 -0.86,-0.56 -0.99,-0.66 -2,-1.42 -3.02,-2.28 -1.03,-0.86 -2.24,-1.63 -3.64,-2.28 -1.4,-0.66 -3.21,-0.99 -5.43,-0.99 -2.72,0 -4.79,0.6 -6.23,1.79 -1.44,1.19 -2.16,2.7 -2.16,4.51 0,1.15 0.37,2.22 1.11,3.21 0.74,0.99 2.26,1.89 4.57,2.72 2.3,0.82 5.8,1.69 10.49,2.59 5.6,0.99 10.04,2.47 13.33,4.44 3.29,1.97 5.66,4.26 7.1,6.85 1.44,2.59 2.16,5.37 2.16,8.33 0,3.87 -1.15,7.3 -3.46,10.31 -2.3,3 -5.66,5.35 -10.06,7.04 -4.4,1.69 -9.81,2.53 -16.23,2.53zm65.18 0c-4.77,0 -8.99,-1.09 -12.65,-3.27 -3.66,-2.18 -6.5,-5.35 -8.52,-9.51 -2.02,-4.16 -3.03,-9.2 -3.03,-15.12l0 -34.44c0,-0.9 0.29,-1.65 0.86,-2.22 0.58,-0.58 1.28,-0.86 2.1,-0.86l13.08 0c0.91,0 1.65,0.29 2.22,0.86 0.58,0.58 0.86,1.32 0.86,2.22l0 33.7c0,9.22 4.03,13.83 12.1,13.83 3.87,0 6.93,-1.21 9.2,-3.64 2.26,-2.43 3.39,-5.82 3.39,-10.18l0 -33.7c0,-0.9 0.29,-1.65 0.86,-2.22 0.58,-0.58 1.32,-0.86 2.22,-0.86l13.08 0c0.82,0 1.52,0.29 2.1,0.86 0.58,0.58 0.86,1.32 0.86,2.22l0 58.02c0,0.9 -0.29,1.65 -0.86,2.22 -0.58,0.58 -1.28,0.86 -2.1,0.86l-12.1 0c-0.9,0 -1.65,-0.29 -2.22,-0.86 -0.58,-0.58 -0.86,-1.32 -0.86,-2.22l0 -4.81c-2.14,2.96 -4.9,5.23 -8.27,6.79 -3.37,1.56 -7.49,2.35 -12.35,2.35zm57.28 -1.23c-0.82,0 -1.52,-0.29 -2.1,-0.86 -0.58,-0.58 -0.86,-1.32 -0.86,-2.22l0 -58.02c0,-0.82 0.29,-1.54 0.86,-2.16 0.58,-0.62 1.28,-0.93 2.1,-0.93l12.1 0c0.82,0 1.54,0.31 2.16,0.93 0.62,0.62 0.93,1.34 0.93,2.16l0 4.94c2.06,-2.55 4.59,-4.53 7.59,-5.93 3,-1.4 6.48,-2.1 10.43,-2.1l5.31 0c0.82,0 1.52,0.29 2.1,0.86 0.58,0.58 0.86,1.32 0.86,2.22l0 10.62c0,0.9 -0.29,1.65 -0.86,2.22 -0.58,0.58 -1.28,0.86 -2.1,0.86l-10.86 0c-3.62,0 -6.46,1.01 -8.52,3.02 -2.06,2.02 -3.09,4.88 -3.09,8.58l0 32.71c0,0.9 -0.29,1.65 -0.86,2.22 -0.58,0.58 -1.32,0.86 -2.22,0.86l-12.96 0zm78.64 1.23c-9.46,0 -16.97,-2.63 -22.53,-7.9 -5.56,-5.27 -8.5,-12.92 -8.83,-22.96 0,-0.66 0,-1.54 0,-2.65 0,-1.11 0,-2 0,-2.65 0.33,-6.34 1.77,-11.79 4.32,-16.36 2.55,-4.57 6.13,-8.07 10.74,-10.49 4.61,-2.43 10,-3.64 16.17,-3.64 6.91,0 12.69,1.42 17.34,4.26 4.65,2.84 8.15,6.71 10.49,11.6 2.35,4.9 3.52,10.51 3.52,16.85l0 2.84c0,0.82 -0.31,1.52 -0.93,2.1 -0.62,0.58 -1.34,0.86 -2.16,0.86l-40.37 0c0,0.08 0,0.23 0,0.43 0,0.21 0,0.39 0,0.56 0.08,2.63 0.6,5.04 1.54,7.22 0.95,2.18 2.3,3.93 4.07,5.25 1.77,1.32 3.89,1.97 6.36,1.97 2.06,0 3.75,-0.29 5.06,-0.86 1.32,-0.58 2.41,-1.28 3.27,-2.1 0.86,-0.82 1.5,-1.52 1.91,-2.1 0.74,-0.82 1.34,-1.34 1.79,-1.54 0.45,-0.21 1.17,-0.31 2.16,-0.31l12.84 0c0.82,0 1.5,0.23 2.04,0.68 0.53,0.45 0.76,1.09 0.68,1.91 -0.08,1.32 -0.76,2.94 -2.04,4.88 -1.28,1.93 -3.15,3.83 -5.62,5.68 -2.47,1.85 -5.53,3.39 -9.2,4.63 -3.66,1.23 -7.88,1.85 -12.65,1.85zm-12.22 -39.38l24.2 0 0 -0.25c0,-2.96 -0.47,-5.53 -1.42,-7.72 -0.95,-2.18 -2.32,-3.89 -4.14,-5.12 -1.81,-1.23 -3.99,-1.85 -6.54,-1.85 -2.55,0 -4.73,0.62 -6.54,1.85 -1.81,1.23 -3.19,2.94 -4.14,5.12 -0.95,2.18 -1.42,4.75 -1.42,7.72l0 0.25zm92.46 39.38c-7.24,0 -13.58,-1.21 -19.01,-3.64 -5.43,-2.43 -9.63,-6.17 -12.59,-11.23 -2.96,-5.06 -4.44,-11.5 -4.44,-19.32l0 -50.37c0,-0.9 0.29,-1.65 0.86,-2.22 0.58,-0.58 1.32,-0.86 2.22,-0.86l13.46 0c0.91,0 1.65,0.29 2.22,0.86 0.58,0.58 0.86,1.32 0.86,2.22l0 50.24c0,6.09 1.44,10.62 4.32,13.58 2.88,2.96 6.91,4.44 12.1,4.44 5.1,0 9.09,-1.48 11.97,-4.44 2.88,-2.96 4.32,-7.49 4.32,-13.58l0 -50.24c0,-0.9 0.31,-1.65 0.93,-2.22 0.62,-0.58 1.34,-0.86 2.16,-0.86l13.58 0c0.82,0 1.52,0.29 2.1,0.86 0.58,0.58 0.86,1.32 0.86,2.22l0 50.37c0,7.82 -1.48,14.26 -4.44,19.32 -2.96,5.06 -7.12,8.81 -12.47,11.23 -5.35,2.43 -11.69,3.64 -19.01,3.64zm77.15 0c-5.1,0 -9.49,-0.6 -13.15,-1.79 -3.66,-1.19 -6.63,-2.65 -8.89,-4.38 -2.26,-1.73 -3.95,-3.48 -5.06,-5.25 -1.11,-1.77 -1.71,-3.27 -1.79,-4.51 -0.08,-0.9 0.21,-1.65 0.86,-2.22 0.66,-0.58 1.32,-0.86 1.98,-0.86l11.97 0c0.25,0 0.49,0.04 0.74,0.12 0.25,0.08 0.49,0.29 0.74,0.62 1.07,0.74 2.18,1.58 3.33,2.53 1.15,0.95 2.49,1.75 4.01,2.41 1.52,0.66 3.44,0.99 5.74,0.99 2.72,0 5.02,-0.56 6.91,-1.67 1.89,-1.11 2.84,-2.7 2.84,-4.75 0,-1.48 -0.43,-2.72 -1.3,-3.7 -0.86,-0.99 -2.49,-1.89 -4.88,-2.72 -2.39,-0.82 -5.93,-1.73 -10.62,-2.72 -4.44,-0.99 -8.23,-2.3 -11.36,-3.95 -3.13,-1.65 -5.47,-3.72 -7.04,-6.23 -1.56,-2.51 -2.35,-5.53 -2.35,-9.07 0,-3.21 1.01,-6.3 3.03,-9.26 2.02,-2.96 5,-5.41 8.95,-7.35 3.95,-1.93 8.89,-2.9 14.81,-2.9 4.53,0 8.5,0.56 11.91,1.67 3.42,1.11 6.28,2.51 8.58,4.2 2.3,1.69 4.05,3.42 5.25,5.18 1.19,1.77 1.83,3.31 1.91,4.63 0.08,0.82 -0.16,1.52 -0.74,2.1 -0.58,0.58 -1.23,0.86 -1.97,0.86l-10.99 0c-0.41,0 -0.78,-0.06 -1.11,-0.18 -0.33,-0.12 -0.62,-0.31 -0.86,-0.56 -0.99,-0.66 -2,-1.42 -3.02,-2.28 -1.03,-0.86 -2.24,-1.63 -3.64,-2.28 -1.4,-0.66 -3.21,-0.99 -5.43,-0.99 -2.72,0 -4.79,0.6 -6.23,1.79 -1.44,1.19 -2.16,2.7 -2.16,4.51 0,1.15 0.37,2.22 1.11,3.21 0.74,0.99 2.26,1.89 4.57,2.72 2.3,0.82 5.8,1.69 10.49,2.59 5.6,0.99 10.04,2.47 13.33,4.44 3.29,1.97 5.66,4.26 7.1,6.85 1.44,2.59 2.16,5.37 2.16,8.33 0,3.87 -1.15,7.3 -3.46,10.31 -2.3,3 -5.66,5.35 -10.06,7.04 -4.4,1.69 -9.81,2.53 -16.23,2.53z"/>
  <path class="fil1" d="M292.09 218.51c-3.71,0 -6.85,-0.65 -9.42,-1.94 -2.57,-1.3 -4.54,-3.15 -5.89,-5.56 -1.36,-2.41 -2.11,-5.31 -2.27,-8.7 -0.04,-1.63 -0.06,-3.39 -0.06,-5.26 0,-1.87 0.02,-3.67 0.06,-5.38 0.16,-3.35 0.93,-6.24 2.3,-8.67 1.38,-2.43 3.35,-4.3 5.92,-5.59 2.57,-1.3 5.69,-1.94 9.36,-1.94 2.71,0 5.14,0.36 7.3,1.08 2.15,0.72 3.99,1.7 5.5,2.96 1.52,1.26 2.69,2.72 3.53,4.4 0.84,1.67 1.28,3.49 1.32,5.44 0.04,0.36 -0.07,0.66 -0.33,0.9 -0.26,0.24 -0.57,0.36 -0.93,0.36l-5.68 0c-0.44,0 -0.8,-0.11 -1.08,-0.33 -0.28,-0.22 -0.48,-0.59 -0.6,-1.11 -0.64,-2.63 -1.73,-4.43 -3.29,-5.38 -1.56,-0.96 -3.49,-1.43 -5.8,-1.43 -2.67,0 -4.8,0.75 -6.4,2.24 -1.59,1.5 -2.45,3.96 -2.57,7.39 -0.12,3.27 -0.12,6.62 0,10.05 0.12,3.43 0.98,5.89 2.57,7.39 1.59,1.5 3.73,2.24 6.4,2.24 2.31,0 4.26,-0.49 5.83,-1.47 1.57,-0.98 2.66,-2.76 3.26,-5.35 0.12,-0.56 0.32,-0.94 0.6,-1.14 0.28,-0.2 0.64,-0.3 1.08,-0.3l5.68 0c0.36,0 0.67,0.12 0.93,0.36 0.26,0.24 0.37,0.54 0.33,0.9 -0.04,1.95 -0.48,3.77 -1.32,5.44 -0.84,1.68 -2.01,3.14 -3.53,4.4 -1.51,1.26 -3.35,2.24 -5.5,2.96 -2.15,0.72 -4.58,1.08 -7.3,1.08zm29.43 -0.6c-0.4,0 -0.74,-0.14 -1.02,-0.42 -0.28,-0.28 -0.42,-0.62 -0.42,-1.02l0 -38.99c0,-0.4 0.14,-0.74 0.42,-1.02 0.28,-0.28 0.62,-0.42 1.02,-0.42l5.56 0c0.4,0 0.74,0.14 1.02,0.42 0.28,0.28 0.42,0.62 0.42,1.02l0 33.31 18.96 0c0.44,0 0.8,0.14 1.08,0.42 0.28,0.28 0.42,0.64 0.42,1.08l0 4.19c0,0.4 -0.14,0.74 -0.42,1.02 -0.28,0.28 -0.64,0.42 -1.08,0.42l-25.96 0zm52.27 0.6c-3.47,0 -6.48,-0.59 -9.03,-1.76 -2.55,-1.18 -4.53,-2.99 -5.92,-5.44 -1.4,-2.45 -2.09,-5.59 -2.09,-9.42l0 -24.34c0,-0.44 0.14,-0.8 0.42,-1.08 0.28,-0.28 0.62,-0.42 1.02,-0.42l5.44 0c0.44,0 0.79,0.14 1.05,0.42 0.26,0.28 0.39,0.64 0.39,1.08l0 24.34c0,3.27 0.78,5.69 2.33,7.27 1.56,1.57 3.69,2.36 6.4,2.36 2.71,0 4.83,-0.79 6.37,-2.36 1.54,-1.57 2.3,-4 2.3,-7.27l0 -24.34c0,-0.44 0.14,-0.8 0.42,-1.08 0.28,-0.28 0.64,-0.42 1.08,-0.42l5.38 0c0.44,0 0.79,0.14 1.05,0.42 0.26,0.28 0.39,0.64 0.39,1.08l0 24.34c0,3.83 -0.69,6.97 -2.06,9.42 -1.38,2.45 -3.33,4.27 -5.86,5.44 -2.53,1.18 -5.55,1.76 -9.06,1.76zm30.62 -0.6c-0.4,0 -0.74,-0.14 -1.02,-0.42 -0.28,-0.28 -0.42,-0.62 -0.42,-1.02l0 -38.93c0,-0.44 0.14,-0.8 0.42,-1.08 0.28,-0.28 0.62,-0.42 1.02,-0.42l17.34 0c3.23,0 5.86,0.49 7.89,1.47 2.03,0.98 3.54,2.32 4.52,4.04 0.98,1.71 1.47,3.71 1.47,5.98 0,1.51 -0.27,2.84 -0.81,3.98 -0.54,1.14 -1.2,2.06 -1.97,2.78 -0.78,0.72 -1.55,1.28 -2.3,1.67 1.55,0.72 2.93,1.91 4.13,3.59 1.2,1.67 1.79,3.67 1.79,5.98 0,2.39 -0.54,4.53 -1.61,6.4 -1.08,1.87 -2.67,3.34 -4.78,4.4 -2.11,1.06 -4.72,1.58 -7.83,1.58l-17.82 0zm6.88 -6.34l9.99 0c2.15,0 3.79,-0.59 4.9,-1.76 1.12,-1.18 1.67,-2.6 1.67,-4.28 0,-1.75 -0.57,-3.21 -1.7,-4.37 -1.14,-1.16 -2.76,-1.73 -4.87,-1.73l-9.99 0 0 12.14zm0 -18.36l9.39 0c2.11,0 3.7,-0.51 4.75,-1.53 1.06,-1.02 1.58,-2.34 1.58,-3.98 0,-1.68 -0.53,-2.99 -1.58,-3.95 -1.06,-0.96 -2.64,-1.43 -4.75,-1.43l-9.39 0 0 10.89z"/>
  <path class="fil2" d="M153.73 61.76l2 0c1.88,0 3.42,1.54 3.42,3.42l0 73.31c0,1.88 -1.54,3.42 -3.42,3.42l-73.61 0c-1.88,0 -3.42,-1.54 -3.42,-3.42l0 -1.7c0,-41.27 33.76,-75.03 75.03,-75.03z"/>
  <path class="fil3" d="M240.11 141.91l2 0c1.88,0 3.42,-1.54 3.42,-3.42l0 -73.31c0,-1.88 -1.54,-3.42 -3.42,-3.42l-73.61 0c-1.88,0 -3.42,1.54 -3.42,3.42l0 1.7c0,41.27 33.76,75.03 75.03,75.03z"/>
  <path class="fil4" d="M240.11 148.93l2 0c1.88,0 3.42,1.54 3.42,3.42l0 73.31c0,1.88 -1.54,3.42 -3.42,3.42l-73.61 0c-1.88,0 -3.42,-1.54 -3.42,-3.42l0 -1.7c0,-41.27 33.76,-75.03 75.03,-75.03z"/>
  <path class="fil5" d="M153.73 148.93l2 0c1.88,0 3.42,1.54 3.42,3.42l0 73.31c0,1.88 -1.54,3.42 -3.42,3.42l-73.61 0c-1.88,0 -3.42,-1.54 -3.42,-3.42l0 -1.7c0,-41.27 33.76,-75.03 75.03,-75.03z"/>
 </g>
</svg>
