<?xml version="1.0" encoding="UTF-8"?>
<!DOCTYPE svg PUBLIC "-//W3C//DTD SVG 1.1//EN" "http://www.w3.org/Graphics/SVG/1.1/DTD/svg11.dtd">
<!-- Creator: CorelDRAW 2021 (64-Bit OEM Version) -->
<svg xmlns="http://www.w3.org/2000/svg" xml:space="preserve" width="3.67131in" height="3.67339in" version="1.1" style="shape-rendering:geometricPrecision; text-rendering:geometricPrecision; image-rendering:optimizeQuality; fill-rule:evenodd; clip-rule:evenodd"
viewBox="0 0 668.17 668.55"
 xmlns:xlink="http://www.w3.org/1999/xlink"
 xmlns:xodm="http://www.corel.com/coreldraw/odm/2003">
 <defs>
  <style type="text/css">
   <![CDATA[
    .fil0 {fill:none}
    .fil1 {fill:#02A904}
    .fil2 {fill:#231F20}
    .fil3 {fill:#BD3E51}
    .fil4 {fill:#FAAF4A}
   ]]>
  </style>
 </defs>
 <g id="Layer_x0020_1">
  <metadata id="CorelCorpID_0Corel-Layer"/>
  <rect class="fil0" x="0" y="-0" width="668.17" height="668.55"/>
  <path class="fil1" d="M507.41 326.39l4.42 0c4.17,0 7.57,-3.41 7.57,-7.57l0 -162.31c0,-4.16 -3.41,-7.57 -7.57,-7.57l-162.97 0c-4.16,0 -7.57,3.41 -7.57,7.57l0 3.76c0,91.36 74.75,166.12 166.11,166.12z"/>
  <path class="fil2" d="M507.41 341.94l4.42 0c4.17,0 7.57,3.41 7.57,7.57l0 162.31c0,4.16 -3.41,7.57 -7.57,7.57l-162.97 0c-4.16,0 -7.57,-3.41 -7.57,-7.57l0 -3.76c0,-91.36 74.75,-166.11 166.11,-166.11z"/>
  <path class="fil3" d="M316.18 341.94l4.42 0c4.17,0 7.57,3.41 7.57,7.57l0 162.31c0,4.16 -3.41,7.57 -7.57,7.57l-162.97 0c-4.16,0 -7.57,-3.41 -7.57,-7.57l0 -3.76c0,-91.36 74.75,-166.11 166.11,-166.11z"/>
  <path class="fil4" d="M316.18 148.94l4.42 0c4.17,0 7.57,3.41 7.57,7.57l0 162.31c0,4.16 -3.41,7.57 -7.57,7.57l-162.97 0c-4.16,0 -7.57,-3.41 -7.57,-7.57l0 -3.76c0,-91.36 74.75,-166.11 166.11,-166.11z"/>
 </g>
</svg>
