<?xml version="1.0" encoding="UTF-8"?> <svg xmlns="http://www.w3.org/2000/svg" xmlns:xlink="http://www.w3.org/1999/xlink" version="1.1" id="Layer_1" x="0px" y="0px" viewBox="0 0 186 70" style="enable-background:new 0 0 186 70;" xml:space="preserve"> <style type="text/css"> .st0{fill:#1A1A3A;} .st1{fill:#FFCC02;} </style> <path id="fullLogo" class="st0" d="M8.2993,67.6497V60.075h5.0392v0.6102H9.0147v2.7353h3.903v0.6101h-3.903v3.0088h4.4291v0.6102 L8.2993,67.6497z"></path> <path id="fullLogo-2" class="st0" d="M18.3251,62.2h0.6312v5.4496h-0.6312v-0.7575c-0.0841,0.0984-0.1788,0.2001-0.284,0.3052 c-0.1103,0.1092-0.2319,0.2062-0.363,0.2893c-0.1495,0.0937-0.3104,0.1679-0.4787,0.2209 c-0.2044,0.0629-0.4174,0.0931-0.6312,0.0896c-0.3121,0.0091-0.623-0.0428-0.9152-0.1527c-0.2304-0.0906-0.4346-0.237-0.5944-0.426 c-0.153-0.1864-0.2642-0.4035-0.3262-0.6365c-0.0689-0.2591-0.1025-0.5262-0.0999-0.7943V62.2h0.6312v3.5769 c-0.0265,0.3872,0.0895,0.7707,0.3261,1.0783c0.2859,0.2754,0.678,0.4119,1.073,0.3736c0.2419,0.0039,0.4813-0.0484,0.6996-0.1527 c0.2044-0.0996,0.3827-0.2454,0.5208-0.426c0.1471-0.196,0.2576-0.417,0.3262-0.6522c0.0795-0.2698,0.1185-0.5498,0.1157-0.831 L18.3251,62.2z"></path> <path id="fullLogo-3" class="st0" d="M21.1446,67.6497h-0.6312V62.2h0.6312v1.0205h0.021c0.1239-0.3677,0.3615-0.6864,0.6786-0.91 c0.3354-0.1863,0.7161-0.2755,1.0994-0.2577v0.6838c-0.3039-0.0177-0.6075,0.0401-0.8837,0.1682 c-0.2225,0.1114-0.4126,0.2781-0.5523,0.484c-0.1427,0.2184-0.2394,0.4636-0.2841,0.7206 c-0.0534,0.2862-0.0799,0.5768-0.0789,0.8679L21.1446,67.6497z"></path> <path id="fullLogo-4" class="st0" d="M26.1522,67.797c-0.3365-0.0045-0.6695-0.0686-0.9836-0.1894 c-0.3028-0.1177-0.5759-0.3009-0.7996-0.5365c-0.2399-0.2579-0.4243-0.5622-0.5418-0.8942 c-0.1406-0.4021-0.2083-0.8261-0.1999-1.252c-0.003-0.3792,0.0502-0.7567,0.1578-1.1203c0.0969-0.3313,0.2578-0.6405,0.4734-0.91 c0.2134-0.2618,0.4831-0.4722,0.789-0.6155c0.3466-0.1573,0.7241-0.2346,1.1046-0.2262c0.384-0.0091,0.7651,0.0682,1.1152,0.2262 c0.3049,0.1426,0.5744,0.351,0.789,0.6102c0.2166,0.2681,0.376,0.5779,0.4682,0.91c0.1037,0.3661,0.1551,0.7451,0.1525,1.1256 c0.0054,0.3999-0.055,0.798-0.1788,1.1783c-0.1088,0.3323-0.2822,0.6397-0.5102,0.9047c-0.2198,0.2517-0.4929,0.4512-0.7995,0.584 C26.8612,67.7318,26.5082,67.8016,26.1522,67.797z M28.0038,64.9249c0.002-0.3047-0.0333-0.6086-0.1052-0.9048 c-0.0619-0.262-0.1726-0.5101-0.3261-0.7312c-0.1471-0.2066-0.342-0.3744-0.5681-0.4891c-0.2657-0.1267-0.5579-0.188-0.8522-0.1788 c-0.2943-0.0084-0.5858,0.0586-0.8469,0.1946c-0.229,0.1244-0.4254,0.301-0.5734,0.5154c-0.1517,0.2241-0.2622,0.4735-0.3261,0.7364 c-0.0705,0.2803-0.1059,0.5683-0.1052,0.8574c-0.003,0.3145,0.0378,0.6278,0.121,0.9311c0.0706,0.2637,0.1902,0.5117,0.3525,0.7312 c0.1522,0.2019,0.3506,0.3642,0.5786,0.4734c0.2502,0.1163,0.5236,0.1739,0.7995,0.1684c0.2943,0.0084,0.5858-0.0587,0.8469-0.1947 c0.23-0.1252,0.4267-0.3038,0.5734-0.5208c0.1505-0.2247,0.2609-0.4739,0.3261-0.7364 C27.9693,65.4984,28.0046,65.2122,28.0038,64.9249z"></path> <path id="fullLogo-5" class="st0" d="M30.5392,69.7958H29.908V62.2h0.6312v0.9574h0.021c0.0915-0.1756,0.2104-0.3354,0.3524-0.4734 c0.1404-0.1377,0.2998-0.2547,0.4734-0.3472c0.1686-0.0899,0.3468-0.1604,0.5312-0.2104c0.1748-0.0481,0.3553-0.0729,0.5366-0.0737 c0.387-0.0111,0.7716,0.0644,1.1257,0.2209c0.2981,0.1391,0.5594,0.3463,0.7627,0.6049c0.2066,0.2701,0.3552,0.5799,0.4365,0.91 c0.0933,0.3679,0.1392,0.7462,0.1368,1.1258c0.0012,0.3697-0.0484,0.7378-0.1473,1.094c-0.0893,0.3324-0.241,0.6448-0.4471,0.9205 c-0.2018,0.2646-0.4607,0.4804-0.7574,0.6312c-0.3351,0.1646-0.7051,0.2458-1.0783,0.2367 c-0.3848,0.0002-0.7646-0.088-1.1099-0.2578c-0.348-0.1661-0.639-0.4315-0.8364-0.7627L30.5392,69.7958z M30.5392,64.9459 c-0.0016,0.2975,0.0409,0.5936,0.1263,0.8786c0.0764,0.2617,0.1994,0.5076,0.363,0.7257c0.1549,0.2047,0.3523,0.3734,0.5786,0.4946 c0.2382,0.1253,0.5041,0.1886,0.7732,0.1841c0.2941,0.0067,0.5852-0.0602,0.8469-0.1947c0.2382-0.1263,0.4421-0.3086,0.5943-0.5312 c0.1601-0.238,0.2743-0.5039,0.3367-0.7839c0.0716-0.3155,0.0999-0.6394,0.0841-0.9625c0.0056-0.3093-0.0425-0.6171-0.142-0.91 c-0.0852-0.247-0.2194-0.4742-0.3945-0.6681c-0.1641-0.1793-0.3651-0.3211-0.5891-0.4155 c-0.2334-0.0964-0.4839-0.1448-0.7364-0.1421c-0.2736-0.0048-0.5442,0.0566-0.789,0.1788c-0.228,0.1163-0.426,0.2837-0.5786,0.4891 c-0.1615,0.2218-0.281,0.4715-0.3524,0.7364C30.5774,64.3251,30.5367,64.6349,30.5392,64.9459z"></path> <path id="fullLogo-6" class="st0" d="M36.6514,65.0722c-0.0017,0.2829,0.0373,0.5646,0.1158,0.8364 c0.0694,0.2477,0.1854,0.4798,0.3419,0.6838c0.1539,0.1954,0.3499,0.3536,0.5734,0.4628c0.2492,0.1198,0.5231,0.1793,0.7995,0.1737 c0.3804,0.0104,0.7536-0.1042,1.0626-0.3262c0.3012-0.2278,0.5104-0.5564,0.5891-0.9258h0.7049 c-0.0737,0.2511-0.1761,0.4929-0.3052,0.7206c-0.124,0.2182-0.2841,0.4139-0.4734,0.5786 c-0.1979,0.1698-0.4264,0.3002-0.6733,0.3842c-0.2918,0.0961-0.5977,0.1424-0.9048,0.1368 c-0.3869,0.0097-0.7712-0.0657-1.1256-0.2211c-0.3034-0.1377-0.5702-0.3449-0.7786-0.6049 c-0.2097-0.2683-0.3635-0.576-0.4524-0.9048c-0.1006-0.3649-0.1501-0.742-0.1473-1.1205c-0.0027-0.3821,0.0559-0.7621,0.1736-1.1256 c0.107-0.3345,0.2746-0.6466,0.4944-0.9205c0.2126-0.2619,0.4802-0.4737,0.7838-0.6206c0.3287-0.1552,0.6886-0.2326,1.052-0.2262 c0.6776-0.0323,1.3313,0.2537,1.7674,0.7733c0.4277,0.5154,0.6381,1.2641,0.6312,2.2461L36.6514,65.0722z M40.2072,64.5462 c0.0017-0.2549-0.0356-0.5086-0.1105-0.7522c-0.0673-0.2229-0.1781-0.4303-0.3261-0.6101c-0.1482-0.175-0.3332-0.3152-0.5419-0.4103 c-0.2347-0.1052-0.4898-0.1573-0.7469-0.1525c-0.2561-0.0054-0.5099,0.0486-0.7416,0.1578 c-0.2091,0.1015-0.3953,0.2447-0.5471,0.4208c-0.1545,0.1815-0.2772,0.3878-0.3629,0.6102 c-0.0924,0.2363-0.1526,0.484-0.1788,0.7364L40.2072,64.5462z"></path> <path id="fullLogo-7" class="st0" d="M44.6154,64.4725c0.1192-0.014,0.2613-0.035,0.4261-0.0631 c0.1395-0.0206,0.2757-0.0595,0.405-0.1158c0.1019-0.0449,0.1749-0.1376,0.1946-0.2472c0.0234-0.1054,0.0357-0.213,0.0369-0.3209 c0.0103-0.2962-0.102-0.5835-0.3104-0.7943c-0.2951-0.236-0.6708-0.3474-1.0468-0.3103c-0.2013-0.0015-0.4023,0.0178-0.5997,0.0578 c-0.1713,0.034-0.334,0.102-0.4787,0.1999c-0.1401,0.0985-0.2553,0.2282-0.3366,0.3789c-0.0959,0.185-0.1549,0.3869-0.1736,0.5944 h-0.6417c0.0116-0.2883,0.0871-0.5704,0.221-0.8259c0.1194-0.22,0.2865-0.4105,0.4891-0.5575 c0.2095-0.148,0.4451-0.2551,0.6944-0.3156c0.2736-0.0678,0.5545-0.1013,0.8363-0.0998c0.2604-0.0015,0.5201,0.0285,0.7733,0.0894 c0.2268,0.0528,0.4412,0.1492,0.6312,0.284c0.1827,0.1346,0.3276,0.3139,0.4208,0.5208c0.1086,0.2522,0.1607,0.5251,0.1526,0.7996 v2.9667c0,0.2456,0.0438,0.4017,0.1315,0.4683c0.0877,0.0665,0.2648,0.0508,0.5313-0.0473v0.4944 c-0.0491,0.0141-0.121,0.035-0.2157,0.0631c-0.0904,0.0273-0.1843,0.0415-0.2788,0.042c-0.0956,0.0003-0.1909-0.0102-0.284-0.0315 c-0.092-0.0087-0.1795-0.0434-0.2525-0.1c-0.0629-0.0524-0.1148-0.1168-0.1525-0.1894c-0.0394-0.0758-0.066-0.1575-0.0789-0.2419 c-0.0144-0.0922-0.0214-0.1855-0.021-0.2788c-0.2548,0.2859-0.5666,0.5153-0.9153,0.6734c-0.351,0.1557-0.7311,0.2347-1.1151,0.2315 c-0.233,0.0007-0.4649-0.0312-0.6891-0.0947c-0.2122-0.0587-0.4106-0.1588-0.5839-0.2946c-0.1673-0.132-0.3038-0.299-0.3998-0.4893 c-0.1031-0.2147-0.1536-0.4509-0.1473-0.689c0-0.9259,0.6347-1.473,1.9042-1.6412L44.6154,64.4725z M45.678,64.7881 c-0.2587,0.1102-0.5313,0.1845-0.8101,0.2209c-0.2735,0.0353-0.5471,0.0634-0.8206,0.0843 c-0.3988,0.0095-0.7883,0.1218-1.1309,0.326c-0.2722,0.1862-0.4261,0.5021-0.405,0.8312c-0.004,0.1516,0.0304,0.3017,0.0999,0.4365 c0.064,0.1199,0.1539,0.2241,0.263,0.3052c0.1137,0.0831,0.2423,0.1438,0.3787,0.1788c0.1423,0.0385,0.2892,0.058,0.4366,0.058 c0.2485,0.0005,0.4961-0.0314,0.7364-0.0947c0.2276-0.0581,0.4431-0.1561,0.6365-0.2893c0.1848-0.1285,0.3377-0.2977,0.4471-0.4944 c0.1167-0.2181,0.1747-0.4628,0.1684-0.7101L45.678,64.7881z"></path> <path id="fullLogo-8" class="st0" d="M48.5922,67.6497h-0.6312V62.2h0.6312v0.7575c0.2324-0.2499,0.4957-0.4691,0.7837-0.6522 c0.2939-0.1748,0.6314-0.2624,0.9731-0.2525c0.3204-0.0031,0.6383,0.0559,0.9363,0.1735c0.2974,0.1239,0.5504,0.3347,0.7259,0.6049 c0.1266,0.1796,0.2078,0.3871,0.2367,0.6049c0.0249,0.2147,0.0372,0.4308,0.0368,0.6469v3.5665h-0.6312v-3.5559 c0.0299-0.3957-0.0861-0.7887-0.3261-1.1046c-0.2912-0.2732-0.6862-0.4074-1.0836-0.3682c-0.1827-0.0023-0.3644,0.028-0.5365,0.0894 c-0.1564,0.057-0.3035,0.1368-0.4366,0.2367c-0.1267,0.095-0.2384,0.2086-0.3314,0.3368c-0.0892,0.1223-0.1601,0.2569-0.2104,0.3997 c-0.0602,0.1626-0.0991,0.3324-0.1157,0.505c-0.0141,0.1613-0.0212,0.3367-0.021,0.526V67.6497z"></path> <path id="fullLogo-9" class="st0" d="M56.8296,67.6497V60.075h2.588c0.2104,0,0.4173,0.0052,0.6207,0.0157 c0.2014,0.0104,0.4018,0.035,0.5997,0.0737c0.1964,0.0387,0.3884,0.0968,0.5733,0.1735c0.1917,0.0807,0.3735,0.183,0.5419,0.3052 c0.2493,0.1791,0.4604,0.4063,0.6207,0.6681c0.1603,0.2609,0.2892,0.5399,0.384,0.831c0.0939,0.2877,0.1608,0.5836,0.1999,0.8837 c0.0369,0.2738,0.0562,0.5497,0.0579,0.8259c-0.0002,0.2567-0.016,0.5132-0.0473,0.768c-0.0312,0.2578-0.0822,0.5128-0.1525,0.7627 c-0.0694,0.247-0.1628,0.4865-0.2788,0.7153c-0.1157,0.228-0.2626,0.4387-0.4366,0.6261c-0.1645,0.1875-0.3581,0.3474-0.5734,0.4734 c-0.2055,0.1187-0.4245,0.2123-0.6522,0.2788c-0.232,0.0674-0.4697,0.1132-0.7101,0.1368 c-0.2456,0.0246-0.4946,0.0368-0.7469,0.0368L56.8296,67.6497z M57.545,67.0395h1.7148c0.3043,0.0012,0.6083-0.0182,0.91-0.058 c0.304-0.045,0.5978-0.1429,0.8679-0.2893c0.245-0.12,0.4578-0.2967,0.6207-0.5154c0.1612-0.2172,0.2905-0.4563,0.384-0.7101 c0.0957-0.2601,0.1628-0.53,0.1999-0.8047c0.0377-0.2684,0.057-0.539,0.0579-0.81c-0.0004-0.2796-0.018-0.559-0.0526-0.8365 c-0.0335-0.2771-0.1006-0.5491-0.1999-0.81c-0.097-0.2537-0.2318-0.4914-0.3998-0.7049c-0.1774-0.2212-0.3997-0.4023-0.6523-0.5312 c-0.2496-0.1266-0.5208-0.2052-0.7995-0.2315c-0.3109-0.0352-0.6235-0.0527-0.9363-0.0526h-1.7148L57.545,67.0395z"></path> <path id="fullLogo-10" class="st0" d="M64.3936,61.0113v-0.9364h0.6943v0.9364H64.3936z M64.4252,67.6497V62.2h0.6312v5.4496 H64.4252z"></path> <path id="fullLogo-11" class="st0" d="M70.874,62.2h0.6312v4.9236c0.0014,0.3519-0.0357,0.7029-0.1104,1.0468 c-0.0667,0.3178-0.2013,0.6174-0.3945,0.8784c-0.2042,0.2642-0.4721,0.4723-0.7785,0.6049c-0.7396,0.274-1.5484,0.2998-2.304,0.0735 c-0.2562-0.0844-0.4951-0.2145-0.7049-0.384c-0.1713-0.1405-0.3126-0.314-0.4155-0.5102c-0.0875-0.1607-0.1396-0.3382-0.1526-0.5207 h0.6735c0.0389,0.1817,0.118,0.3525,0.2314,0.4997c0.1016,0.1268,0.2289,0.2308,0.3735,0.305 c0.1505,0.0758,0.3121,0.1273,0.4787,0.1527c0.181,0.0284,0.3639,0.0425,0.5471,0.042c0.3569,0.016,0.712-0.0601,1.031-0.2211 c0.2464-0.1343,0.4504-0.3347,0.5891-0.5786c0.1372-0.2509,0.2247-0.526,0.2577-0.81c0.0387-0.307,0.0546-0.6164,0.0473-0.9258 c-0.1974,0.3312-0.4884,0.5965-0.8363,0.7627c-0.3454,0.1697-0.7251,0.2579-1.1099,0.2578 c-0.3733,0.0091-0.7432-0.0721-1.0783-0.2367c-0.2967-0.1508-0.5556-0.3666-0.7575-0.6312 c-0.2061-0.2757-0.3579-0.5881-0.4471-0.9205c-0.099-0.3562-0.1486-0.7243-0.1473-1.094c-0.0025-0.3796,0.0434-0.7579,0.1368-1.1258 c0.0813-0.3302,0.2299-0.64,0.4366-0.91c0.2033-0.2587,0.4646-0.4659,0.7627-0.6049c0.3541-0.1566,0.7387-0.232,1.1257-0.2209 c0.1813,0.0008,0.3617,0.0256,0.5366,0.0737c0.1844,0.05,0.3626,0.1206,0.5313,0.2104c0.1735,0.0926,0.3329,0.2095,0.4734,0.3472 c0.1419,0.1381,0.2609,0.2979,0.3524,0.4734h0.021L70.874,62.2z M70.874,64.9459c0.0024-0.311-0.0383-0.6208-0.1209-0.9205 c-0.0716-0.2649-0.191-0.5145-0.3524-0.7364c-0.1527-0.2054-0.3507-0.3728-0.5786-0.4891c-0.2448-0.1222-0.5155-0.1836-0.789-0.1788 c-0.2525-0.0027-0.503,0.0456-0.7364,0.1421c-0.2241,0.0944-0.425,0.2361-0.5891,0.4155c-0.1751,0.1939-0.3093,0.4211-0.3945,0.6681 c-0.0995,0.2929-0.1475,0.6008-0.142,0.91c-0.0159,0.3232,0.0124,0.647,0.0841,0.9625c0.0622,0.2801,0.1764,0.5459,0.3367,0.7839 c0.1511,0.2216,0.3531,0.4038,0.5891,0.5312c0.2631,0.1357,0.5562,0.2027,0.8521,0.1947c0.2691,0.0045,0.535-0.0588,0.7733-0.1841 c0.2263-0.1212,0.4236-0.2899,0.5786-0.4946c0.1636-0.2182,0.2865-0.464,0.363-0.7257 C70.8331,65.5395,70.8756,65.2434,70.874,64.9459z"></path> <path id="fullLogo-12" class="st0" d="M73.1569,61.0113v-0.9364h0.6943v0.9364H73.1569z M73.1884,67.6497V62.2h0.6312v5.4496 H73.1884z"></path> <path id="fullLogo-13" class="st0" d="M77.3438,67.6707c-0.0772,0.014-0.1789,0.0385-0.3051,0.0737 c-0.1373,0.0364-0.2788,0.0541-0.4208,0.0526c-0.2619,0.0185-0.5207-0.0665-0.7206-0.2367c-0.1915-0.2383-0.2804-0.543-0.2472-0.847 v-3.9872H74.882v-0.526H75.65v-1.5149h0.6312v1.5149h1.0205v0.526h-1.0205v3.7347c0,0.1334,0.0035,0.2492,0.0105,0.3472 c0.0031,0.0843,0.0247,0.1669,0.0631,0.2419c0.0358,0.0639,0.0938,0.1126,0.163,0.1368c0.1002,0.0322,0.2053,0.0464,0.3104,0.0422 c0.0863-0.0001,0.1725-0.0072,0.2578-0.0212c0.0877-0.014,0.1736-0.0315,0.2577-0.0526L77.3438,67.6707z"></path> <path id="fullLogo-14" class="st0" d="M80.8576,64.4725c0.1192-0.014,0.2612-0.035,0.4261-0.0631 c0.1395-0.0206,0.2757-0.0595,0.405-0.1158c0.1019-0.0449,0.1749-0.1376,0.1946-0.2472c0.0234-0.1054,0.0357-0.213,0.0369-0.3209 c0.0103-0.2962-0.102-0.5835-0.3104-0.7943c-0.2951-0.236-0.6708-0.3474-1.0468-0.3103c-0.2013-0.0015-0.4023,0.0178-0.5997,0.0578 c-0.1713,0.034-0.334,0.102-0.4787,0.1999c-0.1401,0.0985-0.2554,0.2282-0.3367,0.3789c-0.0959,0.185-0.1549,0.3869-0.1736,0.5944 h-0.6417c0.0116-0.2883,0.0871-0.5704,0.221-0.8259c0.1194-0.22,0.2865-0.4105,0.4891-0.5575 c0.2095-0.148,0.4451-0.2551,0.6943-0.3156c0.2736-0.0678,0.5545-0.1013,0.8364-0.0998c0.2604-0.0015,0.5201,0.0285,0.7733,0.0894 c0.2268,0.0528,0.4412,0.1492,0.6312,0.284c0.1827,0.1346,0.3276,0.3139,0.4208,0.5208c0.1086,0.2522,0.1607,0.5251,0.1526,0.7996 v2.9667c0,0.2456,0.0438,0.4017,0.1315,0.4683c0.0877,0.0665,0.2648,0.0508,0.5313-0.0473v0.4944 c-0.0491,0.0141-0.121,0.035-0.2157,0.0631c-0.0904,0.0273-0.1843,0.0415-0.2788,0.042c-0.0956,0.0003-0.1909-0.0102-0.2841-0.0315 c-0.0919-0.0087-0.1795-0.0434-0.2525-0.1c-0.0629-0.0524-0.1148-0.1168-0.1525-0.1894c-0.0394-0.0758-0.066-0.1575-0.0789-0.2419 c-0.0144-0.0922-0.0214-0.1855-0.021-0.2788c-0.2548,0.2859-0.5666,0.5153-0.9153,0.6734c-0.351,0.1557-0.7312,0.2347-1.1151,0.2315 c-0.233,0.0007-0.4649-0.0312-0.689-0.0947c-0.2122-0.0587-0.4106-0.1588-0.5839-0.2946c-0.1673-0.132-0.3038-0.299-0.3998-0.4893 c-0.1031-0.2147-0.1536-0.4509-0.1473-0.689c0-0.9259,0.6347-1.473,1.9042-1.6412L80.8576,64.4725z M81.9202,64.7881 c-0.2587,0.1102-0.5313,0.1845-0.8101,0.2209c-0.2736,0.0353-0.5471,0.0634-0.8206,0.0843 c-0.3988,0.0094-0.7883,0.1217-1.1309,0.326c-0.2722,0.1862-0.4261,0.5021-0.405,0.8312c-0.004,0.1516,0.0304,0.3017,0.0999,0.4365 c0.064,0.1199,0.1539,0.2242,0.263,0.3052c0.1137,0.0831,0.2422,0.1438,0.3787,0.1788c0.1423,0.0385,0.2892,0.058,0.4366,0.058 c0.2485,0.0005,0.4961-0.0314,0.7364-0.0947c0.2276-0.0581,0.4431-0.1561,0.6365-0.2893c0.1848-0.1285,0.3377-0.2977,0.4471-0.4944 c0.1167-0.2181,0.1747-0.4628,0.1684-0.7101L81.9202,64.7881z"></path> <path id="fullLogo-15" class="st0" d="M84.2978,67.6497V60.075h0.6312v7.5747L84.2978,67.6497z"></path> <path id="fullLogo-16" class="st0" d="M89.5262,67.6497V60.075h1.0941l2.4828,6.6805h0.021l2.4408-6.6805h1.0836v7.5747H95.933 v-6.7541h-0.021l-2.4828,6.7541h-0.6733l-2.4933-6.7541h-0.021v6.7541L89.5262,67.6497z"></path> <path id="fullLogo-17" class="st0" d="M98.6158,65.0722c-0.0017,0.2829,0.0373,0.5646,0.1157,0.8364 c0.0694,0.2477,0.1854,0.4798,0.3419,0.6838c0.1539,0.1954,0.3499,0.3536,0.5734,0.4628c0.2492,0.1198,0.523,0.1793,0.7995,0.1737 c0.3803,0.0104,0.7536-0.1042,1.0626-0.3262c0.3012-0.2278,0.5104-0.5564,0.5891-0.9258h0.7049 c-0.0737,0.2511-0.1761,0.493-0.3052,0.7206c-0.124,0.2182-0.284,0.4139-0.4734,0.5786c-0.1979,0.1698-0.4264,0.3002-0.6733,0.3842 c-0.2918,0.0961-0.5977,0.1424-0.9048,0.1368c-0.3869,0.0097-0.7711-0.0658-1.1256-0.2211 c-0.3034-0.1377-0.5701-0.3449-0.7785-0.6049c-0.2097-0.2683-0.3635-0.576-0.4524-0.9048c-0.1006-0.3649-0.1501-0.742-0.1473-1.1205 c-0.0027-0.3821,0.0559-0.7621,0.1736-1.1256c0.107-0.3345,0.2746-0.6466,0.4944-0.9205c0.2126-0.2619,0.4801-0.4737,0.7838-0.6206 c0.3287-0.1552,0.6887-0.2326,1.052-0.2262c0.6776-0.0323,1.3313,0.2537,1.7674,0.7733c0.4278,0.5154,0.6382,1.2641,0.6312,2.2461 L98.6158,65.0722z M102.1717,64.5462c0.0017-0.2549-0.0355-0.5086-0.1104-0.7522c-0.0673-0.2229-0.1782-0.4303-0.3261-0.6101 c-0.1482-0.1751-0.3332-0.3152-0.5419-0.4103c-0.2347-0.1053-0.4898-0.1573-0.7469-0.1525 c-0.2561-0.0054-0.5099,0.0486-0.7416,0.1578c-0.2091,0.1015-0.3953,0.2447-0.5471,0.4208 c-0.1545,0.1815-0.2772,0.3878-0.363,0.6102c-0.0925,0.2363-0.1526,0.484-0.1788,0.7364L102.1717,64.5462z"></path> <path id="fullLogo-18" class="st0" d="M108.284,60.0749h0.6312v7.5747h-0.6312v-0.9574h-0.021 c-0.0887,0.1789-0.2079,0.3409-0.3524,0.4787c-0.1414,0.1351-0.3007,0.2502-0.4734,0.3419 c-0.1686,0.0899-0.3469,0.1604-0.5313,0.2104c-0.1748,0.048-0.3552,0.0728-0.5365,0.0737c-0.387,0.0112-0.7716-0.0644-1.1257-0.2211 c-0.2982-0.1389-0.5595-0.3462-0.7627-0.6049c-0.2067-0.27-0.3553-0.5798-0.4366-0.91c-0.0933-0.3679-0.1393-0.7461-0.1368-1.1256 c-0.0013-0.3697,0.0483-0.7379,0.1473-1.0942c0.0892-0.3324,0.241-0.6449,0.4471-0.9205c0.2018-0.2647,0.4607-0.4804,0.7575-0.6312 c0.3351-0.1646,0.7051-0.2458,1.0783-0.2367c0.3848-0.0002,0.7645,0.088,1.1099,0.2577c0.3478,0.1663,0.6388,0.4317,0.8363,0.7627 V60.0749z M108.284,64.9038c0.0016-0.2974-0.0409-0.5935-0.1262-0.8784c-0.0765-0.2618-0.1994-0.5077-0.363-0.7259 c-0.1551-0.2045-0.3525-0.3731-0.5786-0.4944c-0.2383-0.1252-0.5042-0.1885-0.7733-0.1841c-0.2959-0.0079-0.589,0.059-0.8521,0.1946 c-0.236,0.1275-0.438,0.3097-0.5891,0.5313c-0.1602,0.2379-0.2744,0.5037-0.3367,0.7837c-0.0717,0.3156-0.1,0.6395-0.0841,0.9627 c-0.0055,0.3093,0.0425,0.6171,0.142,0.91c0.0852,0.247,0.2194,0.4742,0.3945,0.668c0.164,0.1795,0.365,0.3213,0.5891,0.4156 c0.2334,0.0965,0.4839,0.1448,0.7364,0.1421c0.2736,0.0049,0.5443-0.0566,0.789-0.179c0.228-0.1163,0.426-0.2837,0.5786-0.4891 c0.1615-0.2219,0.2809-0.4715,0.3524-0.7364C108.2457,65.5246,108.2864,65.2148,108.284,64.9038z"></path> <path id="fullLogo-19" class="st0" d="M110.567,61.0113v-0.9364h0.6943v0.9364H110.567z M110.5985,67.6497V62.2h0.6312v5.4496 H110.5985z"></path> <path id="fullLogo-20" class="st0" d="M115.3429,64.4725c0.1192-0.014,0.2613-0.035,0.4261-0.0631 c0.1395-0.0206,0.2757-0.0595,0.405-0.1158c0.102-0.0449,0.1749-0.1376,0.1946-0.2472c0.0234-0.1054,0.0357-0.213,0.0368-0.3209 c0.0103-0.2962-0.102-0.5835-0.3104-0.7943c-0.2951-0.236-0.6708-0.3474-1.0468-0.3103c-0.2013-0.0015-0.4023,0.0178-0.5996,0.0578 c-0.1713,0.034-0.3341,0.102-0.4787,0.1999c-0.1401,0.0985-0.2553,0.2282-0.3366,0.3789c-0.0959,0.185-0.1549,0.3869-0.1736,0.5944 h-0.6417c0.0116-0.2883,0.0871-0.5704,0.221-0.8259c0.1194-0.22,0.2865-0.4105,0.4891-0.5575 c0.2095-0.148,0.4451-0.2551,0.6944-0.3156c0.2736-0.0678,0.5545-0.1013,0.8363-0.0998c0.2604-0.0015,0.5201,0.0285,0.7733,0.0894 c0.2268,0.0528,0.4412,0.1492,0.6312,0.284c0.1827,0.1346,0.3276,0.3139,0.4208,0.5208c0.1086,0.2522,0.1607,0.5251,0.1526,0.7996 v2.9667c0,0.2456,0.0438,0.4017,0.1315,0.4683c0.0877,0.0665,0.2648,0.0508,0.5313-0.0473v0.4944 c-0.0491,0.0141-0.1209,0.035-0.2157,0.0631c-0.0904,0.0273-0.1843,0.0415-0.2788,0.042c-0.0956,0.0003-0.1909-0.0102-0.284-0.0315 c-0.092-0.0087-0.1796-0.0434-0.2525-0.1c-0.063-0.0524-0.1148-0.1168-0.1525-0.1894c-0.0394-0.0758-0.066-0.1575-0.0789-0.2419 c-0.0144-0.0922-0.0215-0.1855-0.021-0.2788c-0.2548,0.2859-0.5666,0.5153-0.9153,0.6734c-0.351,0.1557-0.7311,0.2347-1.1151,0.2315 c-0.233,0.0007-0.4649-0.0312-0.6891-0.0947c-0.2121-0.0587-0.4106-0.1589-0.5839-0.2946c-0.1673-0.132-0.3038-0.299-0.3998-0.4893 c-0.1031-0.2147-0.1536-0.4509-0.1473-0.689c0-0.9259,0.6347-1.473,1.9042-1.6412L115.3429,64.4725z M116.4055,64.7881 c-0.2587,0.1102-0.5313,0.1845-0.8101,0.2209c-0.2735,0.0353-0.5471,0.0634-0.8206,0.0843 c-0.3988,0.0094-0.7883,0.1217-1.1309,0.326c-0.2722,0.1862-0.4261,0.5021-0.405,0.8312c-0.004,0.1516,0.0304,0.3017,0.0999,0.4365 c0.064,0.1199,0.1539,0.2241,0.263,0.3052c0.1137,0.0831,0.2422,0.1438,0.3787,0.1788c0.1423,0.0385,0.2892,0.058,0.4366,0.058 c0.2485,0.0005,0.4961-0.0314,0.7364-0.0947c0.2276-0.0581,0.4431-0.1561,0.6365-0.2893c0.1848-0.1285,0.3378-0.2977,0.4471-0.4944 c0.1167-0.2181,0.1747-0.4628,0.1684-0.7101L116.4055,64.7881z"></path> <path id="fullLogo-21" class="st0" d="M121.4132,63.8729c-0.004-0.5275,0.0723-1.0526,0.2262-1.5572 c0.139-0.4616,0.3659-0.892,0.668-1.2677c0.2969-0.3631,0.6706-0.6559,1.0941-0.8574c0.471-0.2182,0.9855-0.3262,1.5045-0.3156 c0.5337-0.0113,1.0634,0.0946,1.5518,0.3103c0.4313,0.1962,0.8125,0.4876,1.1151,0.8522c0.3059,0.3759,0.5347,0.8085,0.6733,1.2728 c0.1535,0.5065,0.2298,1.0332,0.2262,1.5624c0.0036,0.5223-0.0726,1.042-0.2262,1.5412c-0.1398,0.4597-0.3666,0.8883-0.6681,1.2624 c-0.2993,0.3649-0.6768,0.658-1.1046,0.8574c-0.9808,0.4208-2.0912,0.4208-3.072,0c-0.4278-0.1994-0.8053-0.4924-1.1046-0.8574 c-0.3011-0.3736-0.5263-0.8024-0.6628-1.2624C121.4841,64.9143,121.4096,64.3948,121.4132,63.8729z M124.9481,67.2394 c0.439,0.0118,0.8742-0.0839,1.2677-0.2788c0.344-0.1771,0.6427-0.4309,0.8732-0.7417c0.2345-0.3226,0.4059-0.6868,0.505-1.0731 c0.1097-0.4153,0.1645-0.8432,0.163-1.2728c0.0066-0.4788-0.059-0.9558-0.1946-1.4151c-0.1152-0.3897-0.3064-0.7526-0.5628-1.0678 c-0.2413-0.2913-0.5476-0.5219-0.8942-0.6732c-0.3723-0.1586-0.7737-0.2375-1.1783-0.2315 c-0.4361-0.0111-0.8681,0.0865-1.2572,0.284c-0.3445,0.181-0.6432,0.4383-0.8732,0.7522c-0.234,0.3249-0.4053,0.6906-0.505,1.0783 c-0.2173,0.8383-0.2173,1.7181,0,2.5564c0.099,0.3864,0.2704,0.7505,0.505,1.0731c0.2296,0.3103,0.5287,0.5625,0.8732,0.7364 C124.0679,67.158,124.5063,67.2518,124.9481,67.2394L124.9481,67.2394z"></path> <path id="fullLogo-22" class="st0" d="M130.5028,67.6497h-0.6312V60.075h0.6312v2.9983c0.1975-0.3311,0.4884-0.5965,0.8363-0.7627 c0.3454-0.1697,0.7251-0.2579,1.1099-0.2577c0.3733-0.0091,0.7432,0.0721,1.0783,0.2367c0.2967,0.1508,0.5556,0.3665,0.7575,0.6312 c0.2061,0.2757,0.3578,0.5881,0.4471,0.9205c0.0989,0.3563,0.1485,0.7244,0.1473,1.0941c0.0025,0.3795-0.0435,0.7578-0.1368,1.1256 c-0.0813,0.3302-0.2299,0.64-0.4366,0.91c-0.2032,0.2587-0.4645,0.4659-0.7627,0.6049c-0.3541,0.1567-0.7387,0.2322-1.1257,0.2211 c-0.1813-0.0009-0.3617-0.0257-0.5366-0.0737c-0.1845-0.0499-0.3627-0.1205-0.5313-0.2104 c-0.1728-0.0917-0.3321-0.2067-0.4734-0.3419c-0.1446-0.1377-0.2639-0.2997-0.3524-0.4787h-0.021L130.5028,67.6497z M130.5028,64.9038c-0.0025,0.311,0.0382,0.6208,0.1209,0.9205c0.0714,0.265,0.1908,0.5146,0.3524,0.7364 c0.1526,0.2055,0.3506,0.3729,0.5786,0.4891c0.2447,0.1225,0.5154,0.1839,0.789,0.179c0.2525,0.0027,0.503-0.0456,0.7364-0.1421 c0.2241-0.0944,0.4251-0.2362,0.5891-0.4156c0.1752-0.1938,0.3093-0.421,0.3945-0.668c0.0995-0.2929,0.1475-0.6008,0.142-0.91 c0.0158-0.3232-0.0125-0.6471-0.0841-0.9627c-0.0625-0.2799-0.1766-0.5457-0.3367-0.7837 c-0.1523-0.2226-0.3562-0.4049-0.5944-0.5313c-0.2617-0.1344-0.5528-0.2012-0.8468-0.1946 c-0.2691-0.0044-0.535,0.0589-0.7733,0.1841c-0.2262,0.1213-0.4236,0.2899-0.5786,0.4944c-0.1635,0.2183-0.2865,0.4641-0.363,0.7259 C130.5437,64.3103,130.5012,64.6064,130.5028,64.9038z"></path> <path id="fullLogo-23" class="st0" d="M136.5941,65.9453c0.0507,0.3848,0.2395,0.7382,0.5313,0.9941 c0.3256,0.2127,0.7113,0.3142,1.0994,0.2893c0.2031,0.0041,0.4056-0.0243,0.5997-0.0843c0.1521-0.0471,0.2934-0.124,0.4155-0.2262 c0.1039-0.0885,0.1882-0.1978,0.2473-0.3209c0.0559-0.1184,0.0846-0.2478,0.0841-0.3787c0.0169-0.2284-0.0794-0.4506-0.2577-0.5944 c-0.195-0.1407-0.4144-0.2441-0.647-0.305c-0.2771-0.0776-0.558-0.1409-0.8416-0.1894c-0.2881-0.0488-0.5703-0.1282-0.8416-0.2367 c-0.2484-0.0975-0.4702-0.2525-0.647-0.4524c-0.185-0.2361-0.2767-0.5319-0.2577-0.8312c-0.0116-0.4298,0.1721-0.8418,0.4997-1.1203 c0.4023-0.3139,0.9058-0.4693,1.415-0.4367c0.5083-0.023,1.0109,0.1151,1.4361,0.3945c0.4011,0.3244,0.6443,0.805,0.6681,1.3203 h-0.6418c-0.0184-0.353-0.1941-0.6792-0.4786-0.889c-0.299-0.1815-0.6447-0.2711-0.9942-0.2576 c-0.3257-0.0221-0.649,0.0689-0.9152,0.2576c-0.2065,0.1637-0.3235,0.4152-0.3156,0.6786c-0.0125,0.2187,0.084,0.4295,0.2577,0.563 c0.1958,0.1418,0.4148,0.2485,0.647,0.3156c0.2594,0.0807,0.5399,0.1526,0.8416,0.2156c0.2893,0.0592,0.5714,0.1492,0.8416,0.2683 c0.2473,0.107,0.4681,0.2668,0.647,0.4683c0.184,0.2325,0.2758,0.5247,0.2578,0.8206c0.0046,0.2404-0.0534,0.4778-0.1683,0.689 c-0.1129,0.2006-0.2715,0.3718-0.463,0.4997c-0.2135,0.1407-0.4504,0.2423-0.6996,0.2999c-0.2912,0.0691-0.5897,0.1026-0.889,0.1 c-0.2921,0.0052-0.5826-0.0429-0.8574-0.1421c-0.2367-0.087-0.4533-0.2212-0.6365-0.3945 c-0.1746-0.1671-0.3141-0.3674-0.4103-0.5891c-0.0995-0.2298-0.1565-0.4758-0.1683-0.7259L136.5941,65.9453z"></path> <path id="fullLogo-24" class="st0" d="M141.8753,65.0722c-0.0017,0.2829,0.0373,0.5646,0.1157,0.8364 c0.0694,0.2477,0.1854,0.4798,0.3419,0.6838c0.1539,0.1954,0.3499,0.3536,0.5734,0.4628c0.2492,0.1198,0.5231,0.1793,0.7995,0.1737 c0.3803,0.0104,0.7536-0.1042,1.0626-0.3262c0.3013-0.2278,0.5104-0.5564,0.5891-0.9258h0.7049 c-0.0737,0.2511-0.1761,0.493-0.3052,0.7206c-0.124,0.2182-0.284,0.4139-0.4734,0.5786c-0.1978,0.1698-0.4264,0.3002-0.6732,0.3842 c-0.2918,0.0961-0.5977,0.1424-0.9048,0.1368c-0.3869,0.0097-0.7712-0.0658-1.1256-0.2211 c-0.3034-0.1377-0.5701-0.3449-0.7785-0.6049c-0.2097-0.2683-0.3635-0.576-0.4524-0.9048c-0.1006-0.3649-0.1501-0.742-0.1473-1.1205 c-0.0028-0.3821,0.0559-0.7621,0.1736-1.1256c0.107-0.3345,0.2746-0.6466,0.4944-0.9205c0.2126-0.2619,0.4801-0.4737,0.7838-0.6206 c0.3287-0.1552,0.6886-0.2326,1.052-0.2262c0.6776-0.0323,1.3313,0.2537,1.7674,0.7733c0.4278,0.5154,0.6382,1.2641,0.6312,2.2461 L141.8753,65.0722z M145.4312,64.5462c0.0017-0.2549-0.0356-0.5086-0.1104-0.7522c-0.0673-0.2229-0.1782-0.4303-0.3261-0.6101 c-0.1482-0.1751-0.3332-0.3152-0.5419-0.4103c-0.2347-0.1053-0.4898-0.1573-0.7469-0.1525 c-0.2561-0.0054-0.5099,0.0486-0.7416,0.1578c-0.2092,0.1015-0.3953,0.2447-0.5471,0.4208 c-0.1545,0.1815-0.2772,0.3878-0.3629,0.6102c-0.0925,0.2363-0.1526,0.484-0.1788,0.7364L145.4312,64.5462z"></path> <path id="fullLogo-25" class="st0" d="M147.9982,67.6497h-0.6312V62.2h0.6312v1.0205h0.021c0.1238-0.3677,0.3615-0.6864,0.6785-0.91 c0.3354-0.1863,0.7161-0.2755,1.0994-0.2577v0.6838c-0.3039-0.0177-0.6075,0.0401-0.8837,0.1682 c-0.2225,0.1114-0.4126,0.2781-0.5523,0.484c-0.1427,0.2184-0.2394,0.4636-0.2841,0.7206 c-0.0535,0.2862-0.0799,0.5768-0.0789,0.8679L147.9982,67.6497z"></path> <path id="fullLogo-26" class="st0" d="M150.2599,62.2h0.6838l1.7674,4.6711l1.7674-4.6711h0.6838l-2.1147,5.4496h-0.7049 L150.2599,62.2z"></path> <path id="fullLogo-27" class="st0" d="M158.6026,64.4725c0.1192-0.014,0.2613-0.035,0.4261-0.0631 c0.1395-0.0206,0.2757-0.0595,0.405-0.1158c0.102-0.0449,0.1749-0.1376,0.1946-0.2472c0.0234-0.1054,0.0357-0.213,0.0368-0.3209 c0.0103-0.2962-0.102-0.5835-0.3104-0.7943c-0.2951-0.236-0.6707-0.3474-1.0468-0.3103c-0.2013-0.0015-0.4023,0.0178-0.5996,0.0578 c-0.1713,0.034-0.3341,0.102-0.4787,0.1999c-0.1401,0.0985-0.2553,0.2282-0.3366,0.3789c-0.0959,0.185-0.1549,0.3869-0.1736,0.5944 h-0.6417c0.0116-0.2883,0.0871-0.5704,0.221-0.8259c0.1194-0.22,0.2865-0.4105,0.4891-0.5575 c0.2095-0.148,0.4451-0.2551,0.6944-0.3156c0.2736-0.0678,0.5545-0.1013,0.8363-0.0998c0.2604-0.0015,0.5201,0.0285,0.7733,0.0894 c0.2269,0.0528,0.4413,0.1492,0.6312,0.284c0.1827,0.1346,0.3276,0.3139,0.4208,0.5208c0.1086,0.2522,0.1607,0.5251,0.1526,0.7996 v2.9667c0,0.2456,0.0438,0.4017,0.1315,0.4683c0.0877,0.0665,0.2648,0.0508,0.5313-0.0473v0.4944 c-0.0491,0.0141-0.121,0.035-0.2157,0.0631c-0.0904,0.0273-0.1843,0.0415-0.2788,0.042c-0.0956,0.0003-0.1909-0.0102-0.2841-0.0315 c-0.092-0.0087-0.1796-0.0434-0.2525-0.1c-0.0629-0.0524-0.1148-0.1168-0.1525-0.1894c-0.0394-0.0758-0.066-0.1575-0.0789-0.2419 c-0.0144-0.0922-0.0215-0.1855-0.021-0.2788c-0.2547,0.2859-0.5666,0.5153-0.9153,0.6734c-0.351,0.1557-0.7311,0.2347-1.1151,0.2315 c-0.233,0.0007-0.4649-0.0312-0.6891-0.0947c-0.2121-0.0587-0.4106-0.1589-0.5839-0.2946c-0.1673-0.132-0.3038-0.299-0.3998-0.4893 c-0.1031-0.2147-0.1536-0.4509-0.1473-0.689c0-0.9259,0.6347-1.473,1.9042-1.6412L158.6026,64.4725z M159.6652,64.7881 c-0.2587,0.1102-0.5313,0.1845-0.8101,0.2209c-0.2735,0.0353-0.5471,0.0634-0.8206,0.0843 c-0.3988,0.0094-0.7883,0.1217-1.1309,0.326c-0.2722,0.1862-0.4261,0.5021-0.405,0.8312c-0.004,0.1516,0.0304,0.3017,0.0999,0.4365 c0.064,0.1199,0.1539,0.2241,0.263,0.3052c0.1137,0.0831,0.2422,0.1438,0.3787,0.1788c0.1423,0.0385,0.2892,0.058,0.4366,0.058 c0.2485,0.0005,0.4961-0.0314,0.7364-0.0947c0.2276-0.0581,0.4431-0.1561,0.6365-0.2893c0.1848-0.1285,0.3377-0.2977,0.4471-0.4944 c0.1167-0.2181,0.1747-0.4628,0.1684-0.7101L159.6652,64.7881z"></path> <path id="fullLogo-28" class="st0" d="M163.8628,67.6707c-0.0772,0.014-0.1789,0.0385-0.3051,0.0737 c-0.1373,0.0364-0.2788,0.0541-0.4208,0.0526c-0.2619,0.0185-0.5207-0.0665-0.7206-0.2367c-0.1915-0.2383-0.2804-0.543-0.2472-0.847 v-3.9872h-0.7681v-0.526h0.7681v-1.5149h0.6312v1.5149h1.0205v0.526h-1.0205v3.7347c0,0.1334,0.0035,0.2492,0.0105,0.3472 c0.0031,0.0843,0.0247,0.1669,0.0632,0.2419c0.0358,0.0639,0.0938,0.1126,0.163,0.1368c0.1002,0.0322,0.2052,0.0465,0.3104,0.0422 c0.0863-0.0001,0.1725-0.0072,0.2577-0.0212c0.0877-0.014,0.1736-0.0315,0.2577-0.0526L163.8628,67.6707z"></path> <path id="fullLogo-29" class="st0" d="M167.04,67.797c-0.3365-0.0044-0.6696-0.0686-0.9837-0.1894 c-0.3028-0.1177-0.5759-0.3009-0.7996-0.5365c-0.2399-0.2579-0.4243-0.5622-0.5418-0.8942 c-0.1406-0.4021-0.2083-0.8261-0.1999-1.252c-0.0029-0.3792,0.0502-0.7567,0.1578-1.1203c0.0969-0.3313,0.2578-0.6405,0.4734-0.91 c0.2135-0.2618,0.4831-0.4722,0.789-0.6155c0.3466-0.1573,0.7241-0.2346,1.1046-0.2262c0.384-0.0091,0.7651,0.0682,1.1152,0.2262 c0.3049,0.1426,0.5743,0.351,0.789,0.6102c0.2166,0.2681,0.376,0.5779,0.4682,0.91c0.1037,0.3661,0.1551,0.7451,0.1525,1.1256 c0.0054,0.3999-0.055,0.798-0.1788,1.1783c-0.1088,0.3322-0.2822,0.6397-0.5102,0.9047c-0.2198,0.2517-0.4929,0.4512-0.7995,0.584 C167.7489,67.7318,167.396,67.8016,167.04,67.797z M168.8916,64.9249c0.002-0.3047-0.0333-0.6086-0.1052-0.9048 c-0.0619-0.262-0.1725-0.5101-0.3261-0.7312c-0.1471-0.2066-0.342-0.3744-0.5681-0.4891c-0.2657-0.1267-0.5579-0.188-0.8522-0.1788 c-0.2943-0.0084-0.5858,0.0586-0.8469,0.1946c-0.229,0.1244-0.4254,0.301-0.5734,0.5154c-0.1517,0.2241-0.2622,0.4735-0.3261,0.7364 c-0.0706,0.2803-0.1059,0.5683-0.1052,0.8574c-0.003,0.3145,0.0378,0.6278,0.121,0.9311c0.0706,0.2637,0.1902,0.5117,0.3524,0.7312 c0.1522,0.2019,0.3506,0.3642,0.5786,0.4734c0.2502,0.1163,0.5237,0.1739,0.7995,0.1684c0.2943,0.0084,0.5858-0.0587,0.8469-0.1947 c0.23-0.1252,0.4267-0.3038,0.5734-0.5208c0.1505-0.2247,0.2609-0.4739,0.3261-0.7364 C168.8571,65.4984,168.8924,65.2122,168.8916,64.9249L168.8916,64.9249z"></path> <path id="fullLogo-30" class="st0" d="M171.3849,67.6497h-0.6312V62.2h0.6312v1.0205h0.021c0.1239-0.3677,0.3615-0.6864,0.6786-0.91 c0.3354-0.1863,0.7161-0.2755,1.0994-0.2577v0.6838c-0.3039-0.0177-0.6075,0.0401-0.8837,0.1682 c-0.2225,0.1114-0.4126,0.2781-0.5523,0.484c-0.1427,0.2184-0.2394,0.4636-0.2841,0.7206 c-0.0534,0.2862-0.0799,0.5768-0.0789,0.8679L171.3849,67.6497z"></path> <path id="fullLogo-31" class="st0" d="M174.1833,69.1225c0.0841,0.014,0.17,0.028,0.2577,0.0421 c0.0887,0.0141,0.1784,0.0211,0.2682,0.021c0.1608,0.0057,0.3167-0.055,0.4313-0.1679c0.1158-0.1176,0.2102-0.2545,0.2789-0.4045 c0.0742-0.1594,0.1358-0.3245,0.1841-0.4936c0.0408-0.1508,0.0973-0.2969,0.1683-0.436L173.6572,62.2h0.7049l1.7464,4.6816 l1.7464-4.6816h0.6838l-2.0304,5.3759c-0.1262,0.3436-0.2472,0.6521-0.363,0.9258c-0.1003,0.2444-0.2236,0.4787-0.3682,0.6998 c-0.1123,0.175-0.2591,0.3253-0.4313,0.4418c-0.1687,0.1047-0.3644,0.1577-0.5628,0.1525c-0.1073,0.0003-0.2145-0.0067-0.3209-0.021 c-0.0938-0.0126-0.1868-0.0301-0.2788-0.0526V69.1225z"></path> <g id="logoMark"> <path id="logoMark_CompoundPathItem_" class="st0" d="M60.965,1.0429c15.5908,0,23.5913,11.8979,23.5913,23.6595 c0.2051,12.035-7.7269,24.1382-23.5913,24.1382H42.7076V1.0429H60.965z M60.8282,37.5578c7.5903,0,11.2145-6.3593,11.2145-12.7187 c0-6.2909-3.8294-12.5817-11.2145-12.5817h-5.6071v25.3004H60.8282z"></path> <path id="logoMark_CompoundPathItem_2" class="st0" d="M129.8558,0.8377h4.4447v48.0028H121.787V26.7537L111.5982,37.421h-1.4356 L99.9737,26.7537v22.0868H87.4602V0.8377h4.4449l19.0093,20.7193L129.8558,0.8377z"></path> <polygon id="logoMark_PathItem_" class="st0" points="0.1752,37.5821 0.1752,48.9359 37.4861,48.9359 37.4861,37.5821 12.6165,37.5821 "></polygon> <polygon id="logoMark_PathItem_2" class="st0" points="37.3404,12.1553 37.3404,1.3453 0.1752,1.3453 0.1752,12.1553 12.6165,12.1553 "></polygon> <polygon id="logoMark_PathItem_3" class="st0" points="31.5542,29.8316 31.5542,18.9538 12.6165,18.9538 0.1752,18.9538 0.1752,29.8316 12.6165,29.8316 "></polygon> <path id="logoMark_CompoundPathItem_3" class="st1" d="M161.5885,0c-12.4451,0-24.6854,8.3423-24.6854,24.8906 c0,16.6163,11.83,24.822,24.4803,24.822c14.4963,0,24.6167-10.1887,24.6167-24.822C186,8.3423,173.8284,0,161.5885,0z M161.4515,37.5812c-2.2542,0.0026-4.4681-0.5967-6.4133-1.7359l-4.8018,5.3485l-3.1701-2.846l4.7032-5.2388 c-4.5564-5.3487-3.9142-13.3784,1.4345-17.9348c5.3487-4.5564,13.3784-3.9142,17.9348,1.4345 c4.5564,5.3487,3.9142,13.3784-1.4345,17.9348c-2.3024,1.9614-5.2282,3.0383-8.2527,3.0377H161.4515z"></path> </g> </svg> 